<?xml version="1.0" encoding="UTF-8" standalone="no" ?>
<!DOCTYPE svg PUBLIC "-//W3C//DTD SVG 1.1//EN" "http://www.w3.org/Graphics/SVG/1.1/DTD/svg11.dtd">
<svg xmlns="http://www.w3.org/2000/svg" xmlns:xlink="http://www.w3.org/1999/xlink" version="1.1" width="640" height="430" viewBox="0 0 640 430" xml:space="preserve">
<desc>Created with Fabric.js 3.6.6</desc>
<defs>
</defs>
<g transform="matrix(1.25 0 0 1.25 319.96 214.37)"  >
<path style="stroke: none; stroke-width: 1; stroke-dasharray: none; stroke-linecap: butt; stroke-dashoffset: 0; stroke-linejoin: miter; stroke-miterlimit: 4; fill: rgb(240,248,255); fill-rule: nonzero; opacity: 1;"  transform=" translate(-256, -185.17)" d="m 441.953 139.352 c -4.447 -68.872 -61.709 -123.36 -131.705 -123.36 c -59.481 0 -109.766 39.346 -126.264 93.429 c -9.244 -3.5 -19.259 -5.431 -29.729 -5.431 c -42.84 0 -78.164 32.08 -83.322 73.523 c -0.309 -0.004 -0.614 -0.023 -0.924 -0.023 c -36.863 0 -66.747 29.883 -66.747 66.747 s 29.883 66.746 66.747 66.746 c 4.386 0 8.669 -0.436 12.819 -1.243 c 20.151 27.069 52.394 44.604 88.734 44.604 c 31.229 0 59.429 -12.952 79.533 -33.772 c 15.071 15.091 35.901 24.428 58.913 24.428 c 31.43 0 58.783 -17.42 72.955 -43.127 c 11.676 5.824 24.844 9.106 38.777 9.106 c 48.047 0 86.998 -38.949 86.998 -86.996 c 0 -41.088 -28.486 -75.518 -66.785 -84.631 z" stroke-linecap="round" />
</g>
</svg>