<?xml version="1.0" encoding="UTF-8" standalone="no" ?>
<!DOCTYPE svg PUBLIC "-//W3C//DTD SVG 1.1//EN" "http://www.w3.org/Graphics/SVG/1.1/DTD/svg11.dtd">
<svg xmlns="http://www.w3.org/2000/svg" xmlns:xlink="http://www.w3.org/1999/xlink" version="1.1" width="1080" height="1080" viewBox="0 0 1080 1080" xml:space="preserve">
<desc>Created with Fabric.js 5.2.4</desc>
<defs>
</defs>
<g transform="matrix(1 0 0 1 540 540)" id="de0f9572-9a26-41c3-a74a-b29ab46c0b75"  >
</g>
<g transform="matrix(1 0 0 1 540 540)" id="083d79b8-17a9-426f-af3c-bbb26c484bf7"  >
<rect style="stroke: none; stroke-width: 1; stroke-dasharray: none; stroke-linecap: butt; stroke-dashoffset: 0; stroke-linejoin: miter; stroke-miterlimit: 4; fill: rgb(255,255,255); fill-rule: nonzero; opacity: 1; visibility: hidden;" vector-effect="non-scaling-stroke"  x="-540" y="-540" rx="0" ry="0" width="1080" height="1080" />
</g>
<g transform="matrix(44.77 0 0 44.77 539.37 539.67)"  >
<path style="stroke: rgb(0,0,0); stroke-width: 0; stroke-dasharray: none; stroke-linecap: butt; stroke-dashoffset: 0; stroke-linejoin: miter; stroke-miterlimit: 4; fill: rgb(182,102,85); fill-rule: nonzero; opacity: 1;" vector-effect="non-scaling-stroke"  transform=" translate(-12, -12)" d="M 23.693 10.7058 L 18.963 2.5214 C 18.5536 1.8108 17.546400000000002 1.2271999999999998 16.7228 1.2271999999999998 L 7.2725 1.2271999999999998 C 6.4535 1.2271999999999998 5.4417 1.8108 5.032299999999999 2.5214 L 0.307 10.7058 C -0.10249999999999998 11.4164 -0.10249999999999998 12.5788 0.307 13.2895 L 5.0322000000000005 21.4785 C 5.4416 22.1892 6.4488 22.7728 7.272400000000001 22.7728 L 16.727400000000003 22.7728 C 17.546400000000002 22.7728 18.553400000000003 22.1892 18.967600000000004 21.4786 L 23.692800000000005 13.2896 C 24.102300000000007 12.5789 24.102300000000007 11.4164 23.692800000000005 10.7058 z M 10.9763 5.7547 C 10.9763 5.2181999999999995 11.414 4.7805 11.9505 4.7805 C 12.487 4.7805 12.9247 5.2181999999999995 12.9247 5.7547 L 12.9247 11.5764 C 12.9247 12.113 12.487 12.5506 11.9505 12.5506 C 11.414 12.5506 10.9763 12.113 10.9763 11.5764 z M 11.9505 18.1841 C 8.3078 18.1841 5.3427999999999995 15.219100000000001 5.3427999999999995 11.5764 C 5.347499999999999 9.486799999999999 6.3358 7.524299999999999 8.011299999999999 6.272399999999999 C 8.195824204394562 6.13453903762446 8.427680814109186 6.075898354160287 8.655559650968616 6.109455211375299 C 8.883438487828048 6.14301206859031 9.088549015652212 6.265999419977341 9.225499999999998 6.451199999999999 C 9.363392651497948 6.6357308711150935 9.422052107552624 6.867610613733566 9.388494414057647 7.095513897911148 C 9.354936720562668 7.323417182088729 9.23192959466167 7.528547369528354 9.046699999999998 7.6655 C 6.886499999999998 9.270299999999999 6.434699999999998 12.3247 8.039499999999997 14.4849 C 9.644399999999997 16.6452 12.698799999999997 17.096899999999998 14.858999999999996 15.4921 C 16.096799999999995 14.5744 16.826299999999996 13.1201 16.826299999999996 11.5764 C 16.822175690598666 10.027612994035032 16.08564803561332 8.572061387460598 14.840199999999996 7.651399999999999 C 14.454199999999997 7.369 14.374199999999997 6.8229999999999995 14.656599999999996 6.4371 C 14.938999999999997 6.0511 15.484899999999996 5.9711 15.870899999999995 6.2536000000000005 C 17.560399999999994 7.5007 18.553499999999996 9.477400000000001 18.558199999999996 11.5764 C 18.558199999999996 15.2238 15.593199999999996 18.1841 11.950499999999995 18.1841 z" stroke-linecap="round" />
</g>
</svg>