<?xml version="1.0" encoding="UTF-8" standalone="no" ?>
<!DOCTYPE svg PUBLIC "-//W3C//DTD SVG 1.1//EN" "http://www.w3.org/Graphics/SVG/1.1/DTD/svg11.dtd">
<svg xmlns="http://www.w3.org/2000/svg" xmlns:xlink="http://www.w3.org/1999/xlink" version="1.1" width="525" height="325" viewBox="0 0 525 325" xml:space="preserve">
<desc>Created with Fabric.js 3.6.6</desc>
<defs>
</defs>
<g transform="matrix(0.02 0 0 -0.02 262.2 162.2)"  >
<path style="stroke: none; stroke-width: 1; stroke-dasharray: none; stroke-linecap: butt; stroke-dashoffset: 0; stroke-linejoin: miter; stroke-miterlimit: 4; fill: rgb(240,248,255); fill-rule: nonzero; opacity: 1;"  transform=" translate(-10988.76, -19544.58)" d="m 9520.04112 25913.89238 c -735 -25 -1418 -196 -2050 -513 c -788 -396 -1435 -973 -1923 -1716 c -151 -231 -296 -503 -407 -765 c -29 -69 -54 -126 -55 -128 c -1 -1 -50 9 -109 23 c -162 38 -363 71 -546 90 c -132 14 -222 16 -450 12 c -292 -6 -396 -16 -650 -62 c -1216 -220 -2283 -1024 -2844 -2143 c -552 -1102 -564 -2407 -32 -3517 c 563 -1173 1650 -1997 2931 -2220 c 277 -48 707 -68 976 -46 c 443 37 844 134 1234 296 c 75 32 140 53 144 49 c 4 -5 45 -76 90 -158 c 220 -399 495 -737 830 -1019 c 557 -470 1197 -744 1936 -829 c 169 -19 609 -16 785 5 c 775 96 1482 425 2031 946 c 54 50 101 91 106 91 c 5 0 29 -21 53 -46 c 25 -25 95 -87 155 -138 c 626 -528 1323 -831 2145 -933 c 204 -25 694 -25 900 0 c 950 117 1771 522 2423 1196 c 405 419 707 910 908 1475 l 14 39 l 265 2 c 279 2 398 13 645 60 c 468 89 945 288 1345 563 c 251 172 576 472 754 695 c 390 490 642 1044 745 1637 c 40 232 46 319 45 630 c 0 317 -8 411 -55 660 c -258 1362 -1303 2467 -2647 2800 c -513 127 -1090 137 -1587 29 c -49 -10 -94 -19 -101 -19 c -6 0 -44 60 -84 133 c -248 450 -565 796 -985 1072 c -485 319 -1011 476 -1600 477 c -485 0 -892 -96 -1328 -315 l -177 -89 l -67 73 c -99 111 -294 300 -423 411 c -795 687 -1782 1100 -2815 1177 c -154 12 -406 19 -525 15 z" stroke-linecap="round" />
</g>
</svg>