<?xml version="1.0" encoding="UTF-8" standalone="no" ?>
<!DOCTYPE svg PUBLIC "-//W3C//DTD SVG 1.1//EN" "http://www.w3.org/Graphics/SVG/1.1/DTD/svg11.dtd">
<svg xmlns="http://www.w3.org/2000/svg" xmlns:xlink="http://www.w3.org/1999/xlink" version="1.1" width="1080" height="1080" viewBox="0 0 1080 1080" xml:space="preserve">
<desc>Created with Fabric.js 5.2.4</desc>
<defs>
</defs>
<g transform="matrix(1 0 0 1 540 540)" id="eef51b16-89ac-4d48-b1e8-00544f90d5b9"  >
<rect style="stroke: none; stroke-width: 1; stroke-dasharray: none; stroke-linecap: butt; stroke-dashoffset: 0; stroke-linejoin: miter; stroke-miterlimit: 4; fill: rgb(255,255,255); fill-rule: nonzero; opacity: 1; visibility: hidden;" vector-effect="non-scaling-stroke"  x="-540" y="-540" rx="0" ry="0" width="1080" height="1080" />
</g>
<g transform="matrix(1 0 0 1 540 540)" id="21037810-e2d5-4d9f-be0a-cec9f49e83f1"  >
</g>
<g transform="matrix(0.49 0 0 0.49 511.23 685.2)" id="e0d3a48a-6d32-4ce4-97eb-844fdad143de"  >
<path style="stroke: rgb(0,0,0); stroke-width: 0; stroke-dasharray: none; stroke-linecap: butt; stroke-dashoffset: 0; stroke-linejoin: miter; stroke-miterlimit: 4; fill: rgb(255,255,255); fill-rule: nonzero; opacity: 1;" vector-effect="non-scaling-stroke"  transform=" translate(-13388.72, -13264.69)" d="M 11920 19634 C 11185 19609 10502 19438 9870 19121 C 9082 18725 8435 18148 7947 17405 C 7796 17174 7651 16902 7540 16640 C 7511 16571 7486 16514 7485 16512 C 7484 16511 7435 16521 7376 16535 C 7214 16573 7013 16606 6830 16625 C 6698 16639 6608 16641 6380 16637 C 6088 16631 5984 16621 5730 16575 C 4514 16355 3447 15551 2886 14432 C 2334 13330 2322 12025 2854 10915 C 3417 9742 4504 8918 5785 8695 C 6062 8647 6492 8627 6761 8649 C 7204 8686 7605 8783 7995 8945 C 8070 8977 8135 8998 8139 8994 C 8143 8989 8184 8918 8229 8836 C 8449 8437 8724 8099 9059 7817 C 9616 7347 10256 7073 10995 6988 C 11164 6969 11604 6972 11780 6993 C 12555 7089 13262 7418 13811 7939 C 13865 7989 13912 8030 13917 8030 C 13922 8030 13946 8009 13970 7984 C 13995 7959 14065 7897 14125 7846 C 14751 7318 15448 7015 16270 6913 C 16474 6888 16964 6888 17170 6913 C 18120 7030 18941 7435 19593 8109 C 19998 8528 20300 9019 20501 9584 L 20515 9623 L 20780 9625 C 21059 9627 21178 9638 21425 9685 C 21893 9774 22370 9973 22770 10248 C 23021 10420 23346 10720 23524 10943 C 23914 11433 24166 11987 24269 12580 C 24309 12812 24315 12899 24314 13210 C 24314 13527 24306 13621 24259 13870 C 24001 15232 22956 16337 21612 16670 C 21099 16797 20522 16807 20025 16699 C 19976 16689 19931 16680 19924 16680 C 19918 16680 19880 16740 19840 16813 C 19592 17263 19275 17609 18855 17885 C 18370 18204 17844 18361 17255 18362 C 16770 18362 16363 18266 15927 18047 L 15750 17958 L 15683 18031 C 15584 18142 15389 18331 15260 18442 C 14465 19129 13478 19542 12445 19619 C 12291 19631 12039 19638 11920 19634 z" stroke-linecap="round" />
</g>
</svg>