<?xml version="1.0" encoding="UTF-8" standalone="no" ?>
<!DOCTYPE svg PUBLIC "-//W3C//DTD SVG 1.1//EN" "http://www.w3.org/Graphics/SVG/1.1/DTD/svg11.dtd">
<svg xmlns="http://www.w3.org/2000/svg" xmlns:xlink="http://www.w3.org/1999/xlink" version="1.1" width="1080" height="1080" viewBox="0 0 1080 1080" xml:space="preserve">
<desc>Created with Fabric.js 5.2.4</desc>
<defs>
</defs>
<rect x="0" y="0" width="100%" height="100%" fill="transparent"></rect>
<g transform="matrix(1 0 0 1 540 540)" id="eef51b16-89ac-4d48-b1e8-00544f90d5b9"  >
<rect style="stroke: none; stroke-width: 1; stroke-dasharray: none; stroke-linecap: butt; stroke-dashoffset: 0; stroke-linejoin: miter; stroke-miterlimit: 4; fill: rgb(255,255,255); fill-rule: nonzero; opacity: 1; visibility: hidden;" vector-effect="non-scaling-stroke"  x="-540" y="-540" rx="0" ry="0" width="1080" height="1080" />
</g>
<g transform="matrix(1 0 0 1 540 540)" id="21037810-e2d5-4d9f-be0a-cec9f49e83f1"  >
</g>
<g transform="matrix(21.17 0 0 21.17 524.21 133.25)" id="497795d7-6d29-450e-aa6a-9c74a133e28d"  >
<path style="stroke: rgb(0,0,0); stroke-width: 0; stroke-dasharray: none; stroke-linecap: butt; stroke-dashoffset: 0; stroke-linejoin: miter; stroke-miterlimit: 4; fill: rgb(255,255,255); fill-rule: nonzero; opacity: 1;" vector-effect="non-scaling-stroke"  transform=" translate(-256, -188.17)" d="M 441.953 142.352 C 437.506 73.48 380.24399999999997 18.992000000000004 310.24799999999993 18.992000000000004 C 250.76699999999994 18.992000000000004 200.4819999999999 58.338 183.98399999999992 112.421 C 174.73999999999992 108.921 164.7249999999999 106.99000000000001 154.25499999999994 106.99000000000001 C 111.41499999999994 106.99000000000001 76.09099999999994 139.07 70.93299999999994 180.513 C 70.62399999999994 180.50900000000001 70.31899999999993 180.49 70.00899999999993 180.49 C 33.14599999999993 180.49 3.2619999999999294 210.37300000000002 3.2619999999999294 247.23700000000002 C 3.2619999999999294 284.101 33.144999999999925 313.983 70.00899999999993 313.983 C 74.39499999999992 313.983 78.67799999999993 313.547 82.82799999999993 312.74 C 102.97899999999993 339.809 135.22199999999992 357.344 171.56199999999993 357.344 C 202.79099999999994 357.344 230.99099999999993 344.392 251.0949999999999 323.572 C 266.16599999999994 338.663 286.9959999999999 348 310.0079999999999 348 C 341.43799999999993 348 368.79099999999994 330.58 382.9629999999999 304.873 C 394.6389999999999 310.697 407.8069999999999 313.979 421.7399999999999 313.979 C 469.7869999999999 313.979 508.7379999999999 275.03 508.7379999999999 226.983 C 508.738 185.895 480.252 151.465 441.953 142.352 z" stroke-linecap="round" />
</g>
</svg>