<?xml version="1.0" encoding="UTF-8" standalone="no" ?>
<!DOCTYPE svg PUBLIC "-//W3C//DTD SVG 1.1//EN" "http://www.w3.org/Graphics/SVG/1.1/DTD/svg11.dtd">
<svg xmlns="http://www.w3.org/2000/svg" xmlns:xlink="http://www.w3.org/1999/xlink" version="1.1" width="1080" height="1080" viewBox="0 0 1080 1080" xml:space="preserve">
<desc>Created with Fabric.js 5.2.4</desc>
<defs>
</defs>
<rect x="0" y="0" width="100%" height="100%" fill="transparent"></rect>
<g transform="matrix(1 0 0 1 540 540)" id="ff59a41c-5118-44f8-bcfd-228f7b7ea0f6"  >
</g>
<g transform="matrix(1 0 0 1 540 540)" id="cc2c01cb-4236-4341-8f08-32122305f68c"  >
<rect style="stroke: none; stroke-width: 1; stroke-dasharray: none; stroke-linecap: butt; stroke-dashoffset: 0; stroke-linejoin: miter; stroke-miterlimit: 4; fill: rgb(255,255,255); fill-rule: nonzero; opacity: 1; visibility: hidden;" vector-effect="non-scaling-stroke"  x="-540" y="-540" rx="0" ry="0" width="1080" height="1080" />
</g>
<g transform="matrix(46.83 0 0 46.83 540 558.7)"  >
<path style="stroke: rgb(0,0,0); stroke-opacity: 0; stroke-width: 0; stroke-dasharray: none; stroke-linecap: butt; stroke-dashoffset: 0; stroke-linejoin: miter; stroke-miterlimit: 4; fill: rgb(104,164,196); fill-rule: nonzero; opacity: 1;" vector-effect="non-scaling-stroke"  transform=" translate(-12, -11.78)" d="M 5.45344 3.3395 C 5.70395 3.11818 6.02498 3 6.35252 3 C 6.68005 3 7.00108 3.11818 7.2516 3.3395 C 7.25863 3.34571 7.26557 3.35202 7.27243 3.35843 C 7.43524 3.51064 7.55906 3.70268 7.6293 3.91856 L 9.16251 8.47062 C 9.29953 8.87744 9.68091 9.15142 10.1102 9.15142 L 13.8549 9.15142 C 14.2845 9.15142 14.6661 8.87706 14.8029 8.46985 L 16.339 3.89696 C 16.345 3.87917 16.3515 3.86155 16.3584 3.84412 C 16.4373 3.6469 16.5615 3.47351 16.7184 3.33626 C 16.9684 3.11703 17.2879 3 17.6138 3 C 17.9414 3 18.2624 3.11818 18.5129 3.3395 C 18.5199 3.34571 18.5269 3.35202 18.5337 3.35843 C 18.6967 3.51075 18.8206 3.70295 18.8908 3.91902 L 20.8808 9.84304 L 21.9167 12.8095 C 21.9215 12.8232 21.926 12.837 21.9302 12.8509 C 22.0356 13.2009 22.0212 13.5751 21.8901 13.9158 C 21.7631 14.2456 21.5352 14.5224 21.2447 14.7122 L 13.7084 20.0097 C 12.6733 20.7372 11.293 20.7372 10.258 20.0097 L 2.7047 14.7003 L 2.70013 14.6971 C 2.41336 14.4931 2.195 14.2024 2.08286 13.8625 C 1.97101 13.5236 1.97246 13.1582 2.08682 12.8202 L 3.08366 9.83299 L 5.07768 3.89696 C 5.08366 3.87917 5.09014 3.86155 5.09711 3.84412 C 5.17596 3.64691 5.30022 3.47351 5.45712 3.33626 L 5.45344 3.3395 Z" stroke-linecap="round" />
</g>
<g transform="matrix(NaN NaN NaN NaN 0 0)"  >
<g style=""   >
</g>
</g>
<g transform="matrix(NaN NaN NaN NaN 0 0)"  >
<g style=""   >
</g>
</g>
</svg>